<svg width="33" height="32" viewBox="0 0 33 32" fill="none" xmlns="http://www.w3.org/2000/svg">
<rect x="0.86554" width="32" height="32" rx="5" fill="#4F5516"/>
<path d="M21.3626 4.02692L30.9974 8.73689L31.2757 8.87263V20.6363C31.2757 20.9095 31.0538 21.1314 30.7806 21.1314C30.5074 21.1313 30.2855 20.9095 30.2855 20.6363V9.49079L21.1331 5.01618L12.4847 8.77888L3.92316 12.5035V20.1422H20.6507V7.49177L21.2933 7.69196L29.0013 10.1011L29.348 10.2095V21.1314H21.64V26.1549L20.8392 25.5211L19.1312 24.1715L17.3372 22.7906H14.9974C14.9636 22.9288 14.9137 23.088 14.8343 23.2496C14.7152 23.4918 14.5281 23.7504 14.2386 23.9488C13.9457 24.1495 13.5758 24.269 13.1253 24.274C12.6728 24.2789 12.2988 24.1641 12.0013 23.9654C11.7079 23.7693 11.5162 23.5107 11.3929 23.2681C11.3075 23.1 11.2527 22.9335 11.2161 22.7906H7.23077C7.1976 22.9407 7.14395 23.1203 7.05402 23.3033C6.93496 23.5454 6.74761 23.8042 6.45831 24.0025C6.16563 24.2029 5.796 24.3226 5.34601 24.3277C4.89322 24.3327 4.51867 24.2179 4.22101 24.0191C3.92742 23.823 3.73692 23.5636 3.61359 23.3209C3.51699 23.1307 3.45814 22.9441 3.42218 22.7896C3.15171 22.7864 2.93292 22.5667 2.93292 22.2955C2.93327 22.0226 3.15509 21.8014 3.42804 21.8013H17.6741L17.8079 21.9039L19.7347 23.3873L19.7396 23.3912L20.6507 24.1109V21.1314H2.93292V11.855L3.23077 11.7252L12.0892 7.87165L20.9485 4.01716L21.1575 3.92634L21.3626 4.02692ZM4.49542 22.8726C4.56147 23.0026 4.65048 23.1154 4.77081 23.1959C4.88727 23.2737 5.06177 23.3404 5.33429 23.3375C5.60913 23.3344 5.78455 23.265 5.89972 23.1861C6.01802 23.1049 6.10415 22.9932 6.16632 22.8668C6.16982 22.8596 6.17274 22.8515 6.17609 22.8443H4.48273C4.4871 22.8535 4.49078 22.8634 4.49542 22.8726ZM12.2757 22.8199C12.3417 22.9497 12.4309 23.0628 12.5511 23.1431C12.6675 23.2209 12.8422 23.2877 13.1146 23.2847C13.3894 23.2817 13.5638 23.2113 13.679 23.1324C13.7976 23.0511 13.8833 22.9397 13.9456 22.8131C13.9492 22.8057 13.952 22.7979 13.9554 22.7906H12.262C12.2665 22.8 12.2709 22.8105 12.2757 22.8199ZM21.64 20.1422H28.3587V10.9361L21.64 8.83747V20.1422Z" fill="#FAF4E8"/>
</svg>
