<svg width="64" height="81" viewBox="0 0 64 81" fill="none" xmlns="http://www.w3.org/2000/svg">
<path d="M42.0611 53.6544C42.3199 53.9132 42.5788 54.4309 42.5788 54.8192C42.5788 55.2074 42.4493 55.7251 42.0611 55.9839C41.8022 56.2428 41.2846 56.5016 40.8963 56.5016C40.5081 56.5016 39.9904 56.3722 39.7316 55.9839C39.4727 55.7251 39.2139 55.2074 39.2139 54.8192C39.2139 54.4309 39.3433 53.9132 39.7316 53.6544C39.9904 53.3956 40.5081 53.1367 40.8963 53.1367C41.2846 53.1367 41.8022 53.3956 42.0611 53.6544Z" fill="#94A11A"/>
<path d="M28.6016 31.0061C27.6957 31.0061 26.9192 30.2295 26.9192 29.3236V14.4405C26.9192 13.5346 27.6957 12.7581 28.6016 12.7581H31.5783C32.4842 12.7581 33.2607 13.5346 33.2607 14.4405C33.2607 15.3464 32.4842 16.1229 31.5783 16.1229H30.2841V29.3236C30.2841 30.2295 29.5076 31.0061 28.6016 31.0061Z" fill="#94A11A"/>
<path d="M28.6014 16.1229H25.6248C24.7189 16.1229 23.9424 15.3464 23.9424 14.4405C23.9424 13.5346 24.7189 12.7581 25.6248 12.7581H28.6014C29.5074 12.7581 30.2839 13.5346 30.2839 14.4405C30.2839 15.3464 29.5074 16.1229 28.6014 16.1229Z" fill="#94A11A"/>
<path d="M28.6016 43.43C27.6957 43.43 26.9192 42.6535 26.9192 41.7476V35.2767C26.9192 34.3707 27.6957 33.5942 28.6016 33.5942C29.5076 33.5942 30.2841 34.3707 30.2841 35.2767V41.7476C30.2841 42.6535 29.5076 43.43 28.6016 43.43Z" fill="#94A11A"/>
<path d="M34.6841 31.006C33.6488 31.006 32.8723 30.2295 32.8723 29.3236V24.7939C32.8723 24.2763 33.1311 23.6292 33.6488 23.3703C36.8842 21.5585 38.8255 18.1936 38.8255 14.4405C38.8255 8.87549 34.1665 4.21642 28.472 4.21642C22.7776 4.21642 18.1186 8.74607 18.1186 14.4405C18.1186 18.1936 20.1893 21.5585 23.2953 23.3703C23.813 23.6292 24.0718 24.1468 24.0718 24.7939V29.3236C24.0718 30.2295 23.2953 31.006 22.3894 31.006C21.4834 31.006 20.7069 30.2295 20.7069 29.3236V25.6999C16.9538 23.2409 14.6243 19.0995 14.6243 14.4405C14.6243 7.06363 20.7069 0.980957 28.2132 0.980957C35.8489 0.980957 41.8021 6.93421 41.8021 14.4405C41.8021 18.9701 39.602 23.2409 35.8489 25.6999V29.3236C36.2371 30.2295 35.59 31.006 34.6841 31.006Z" fill="#94A11A"/>
<path fill-rule="evenodd" clip-rule="evenodd" d="M34.6841 35.5359H22.7777C21.8717 35.5359 21.0952 34.7594 21.0952 33.8534V29.3238C21.0952 28.4179 21.8717 27.6414 22.7777 27.6414H34.6841C35.5901 27.6414 36.3666 28.4179 36.3666 29.3238V33.8534C36.2372 34.7594 35.5901 35.5359 34.6841 35.5359ZM24.3307 32.3004H32.8723V31.0062H24.3307V32.3004Z" fill="#94A11A"/>
<path d="M45.8141 50.0304C44.9082 50.0304 44.1317 49.2539 44.1317 48.348C44.1317 47.3126 44.9082 46.5361 45.8141 46.5361C46.2024 46.5361 46.5906 46.4067 46.9789 46.0184C47.2377 45.7596 47.4965 45.3713 47.4965 44.8537C47.4965 43.9477 46.72 43.1712 45.8141 43.1712H11.5182C11.13 43.1712 10.7417 43.3006 10.3535 43.6889C10.0946 43.9477 9.8358 44.336 9.8358 44.8537C9.8358 45.7596 10.6123 46.5361 11.5182 46.5361C12.4242 46.5361 13.2007 47.3126 13.2007 48.348C13.2007 49.2539 12.4242 50.0304 11.5182 50.0304C8.80046 50.0304 6.60034 47.7009 6.60034 44.9831C6.60034 43.6889 7.11802 42.5241 8.02395 41.4888C8.92988 40.5828 10.2241 40.0652 11.5182 40.0652H45.8141C48.5319 40.0652 50.8614 42.2653 50.8614 44.9831C50.8614 46.2772 50.2143 47.442 49.3084 48.6068C48.4025 49.6421 47.1083 50.0304 45.8141 50.0304Z" fill="#94A11A"/>
<path d="M40.8963 80.9614C40.7238 80.9614 40.5943 80.9614 40.5081 80.9614C39.6021 80.832 39.0845 79.9261 39.2139 78.8907L45.426 50.0304H11.9066L17.9893 78.8907C18.1187 79.9261 17.601 80.7026 16.6951 80.9614C15.7892 81.0908 15.0127 80.5732 14.7538 79.5378L8.28291 48.6068C8.15349 48.0891 8.28291 47.4421 8.67117 47.1832C8.93 46.795 9.44768 46.5361 9.96535 46.5361H47.4967C48.0143 46.5361 48.4026 46.795 48.7908 47.1832C49.0497 47.5715 49.1791 48.2186 49.1791 48.6068L42.7082 79.5378C42.3199 80.4437 41.6728 80.9614 40.8963 80.9614Z" fill="#94A11A"/>
<path d="M36.1079 56.5016H11.5184C10.6125 56.5016 9.83594 55.7251 9.83594 54.8192C9.83594 53.9132 10.6125 53.1367 11.5184 53.1367H36.1079C37.0138 53.1367 37.7903 53.9132 37.7903 54.8192C37.7903 55.7251 36.8844 56.5016 36.1079 56.5016Z" fill="#94A11A"/>
<path d="M62.1208 80.9616H1.68242C0.776494 80.9616 0 80.1851 0 79.1497C0 78.2438 0.776494 77.4673 1.68242 77.4673H62.1208C63.0267 77.4673 63.8032 78.2438 63.8032 79.1497C63.6738 80.3145 62.8973 80.9616 62.1208 80.9616Z" fill="#94A11A"/>
<path d="M42.5785 71.1259H27.8248C26.9188 71.1259 26.1423 70.3494 26.1423 69.4434C26.1423 68.5375 26.9188 67.761 27.8248 67.761H42.5785C43.4844 67.761 44.2609 68.5375 44.2609 69.4434C44.1315 70.4788 43.355 71.1259 42.5785 71.1259Z" fill="#94A11A"/>
<path fill-rule="evenodd" clip-rule="evenodd" d="M43.2259 37.4768C41.5435 37.4768 40.1199 36.8297 39.4728 35.665C38.0492 33.3354 39.9904 29.5823 43.873 27.2528C45.8143 26.088 47.885 25.4409 49.5674 25.4409C51.3793 25.4409 52.8029 26.088 53.4499 27.2528C54.8736 29.5823 52.9323 33.3354 48.9203 35.665C46.979 36.8297 44.9083 37.4768 43.2259 37.4768ZM49.5674 28.6764C48.4026 28.6764 46.979 29.194 45.5554 29.9706C44.2613 30.7471 43.2259 31.653 42.7082 32.6883C42.32 33.3354 42.1906 33.8531 42.32 33.9825C42.32 33.9825 42.7082 34.2414 43.2259 34.2414C44.3907 34.2414 45.8143 33.7237 47.2379 32.9472C48.5321 32.0413 49.5674 31.1353 50.0851 30.2294C50.6028 29.5823 50.7322 29.0646 50.6027 28.9352C50.7322 28.8058 50.2145 28.6764 49.5674 28.6764Z" fill="#94A11A"/>
<path fill-rule="evenodd" clip-rule="evenodd" d="M13.9772 37.4768C12.2948 37.4768 10.2241 36.8297 8.28282 35.665C4.27086 33.3354 2.32959 29.5823 3.88261 27.2528C4.5297 26.088 5.95329 25.4409 7.63573 25.4409C9.31817 25.4409 11.3889 26.088 13.3301 27.2528C17.3421 29.5823 19.2834 33.3354 17.7304 35.665C17.0833 36.8297 15.7891 37.4768 13.9772 37.4768ZM7.63573 28.6764C6.98864 28.6764 6.72981 28.8058 6.72981 28.9352C6.72981 29.0646 6.72981 29.4529 7.11807 30.2294C7.76516 31.1353 8.8005 32.3001 9.96527 32.9472C11.3889 33.7237 12.8125 34.2414 13.9772 34.2414C14.6243 34.2414 14.8832 34.1119 14.8832 33.9825C14.8832 33.8531 14.8832 33.4648 14.4949 32.6883C13.8478 31.653 12.8125 30.6177 11.6477 29.9706C10.2241 29.194 8.8005 28.6764 7.63573 28.6764Z" fill="#94A11A"/>
</svg>
