<svg width="79" height="81" viewBox="0 0 79 81" fill="none" xmlns="http://www.w3.org/2000/svg">
<path fill-rule="evenodd" clip-rule="evenodd" d="M39.9331 34.9807C33.7998 34.9807 28.8665 29.914 28.8665 23.9141C28.8665 17.9141 33.7998 12.8474 39.9331 12.8474C45.9331 12.8474 50.9997 17.9141 50.9997 23.9141C50.8664 29.914 45.9331 34.9807 39.9331 34.9807ZM39.9331 16.1807C35.6664 16.1807 32.1998 19.6473 32.1998 23.7807C32.1998 28.0473 35.7998 31.5141 39.9331 31.5141C44.1998 31.5141 47.5331 27.914 47.5331 23.7807C47.5331 19.6473 44.0664 16.1807 39.9331 16.1807Z" fill="#94A11A"/>
<path d="M26.2001 42.0476C25.8001 42.0476 25.4 41.9143 25 41.5143L22.2001 38.7142C21.6667 38.1809 21.5334 37.2476 21.9334 36.5809L24.7334 32.181C24.0667 31.1143 23.6667 29.7809 23.2667 28.5809L18.0667 27.5143C17.2667 27.381 16.7334 26.7143 16.7334 25.9143V21.9143C16.7334 21.1143 17.2667 20.4476 18.0667 20.3143L23.2667 19.2476C23.6667 18.0476 24.0667 16.8476 24.7334 15.7809L21.9334 11.2476C21.5334 10.581 21.6667 9.78092 22.2001 9.11425L25 6.31428C25.5334 5.78095 26.4667 5.6476 27.1334 6.0476L31.5334 8.84765C32.6001 8.18098 33.8 7.78093 35.1334 7.38093L36.2001 2.31429C36.3334 1.51429 37 0.980957 37.8 0.980957H41.8C42.6 0.980957 43.2667 1.51429 43.4 2.31429L44.4667 7.38093C45.6667 7.78093 46.8667 8.18098 47.9334 8.84765L52.4667 6.0476C53.1333 5.6476 53.9333 5.78095 54.6 6.31428L57.5334 9.11425C58.0667 9.64758 58.2 10.581 57.8 11.2476L55 15.6476C55.6667 16.7143 56.0667 17.9142 56.4667 19.1142L61.5334 20.181C62.3334 20.3143 62.8667 20.9809 62.8667 21.7809V25.7809C62.8667 26.5809 62.3334 27.2476 61.5334 27.3809L56.4667 28.4476C56.0667 29.6476 55.6667 30.9809 55 32.0476L57.8 36.4476C58.2 37.1142 58.0667 37.9143 57.5334 38.5809L54.7334 41.5143C54.2 42.0476 53.2667 42.1809 52.6 41.7809L48.0667 38.9809C46.6 39.7809 45.1334 40.3142 43.5334 40.7142C42.6 40.8476 41.8 40.3143 41.5334 39.5143C41.4 38.581 41.9334 37.781 42.7334 37.5143C44.3334 37.1143 45.8 36.5809 47.1334 35.6476C47.6667 35.2476 48.3334 35.2476 48.8667 35.6476L53.1333 38.3143L54.0667 37.3809L51.4 33.2476C51 32.7143 51 32.0476 51.4 31.5143C52.2 30.0476 52.8667 28.5809 53.2667 26.9809C53.4 26.3143 53.9333 25.9142 54.4667 25.7809L59.2667 24.7142V23.3809L54.4667 22.3143C53.8 22.1809 53.4 21.6476 53.2667 21.1142C52.8667 19.5142 52.3334 18.0476 51.4 16.7143C51 16.1809 51 15.5143 51.4 14.9809L54.0667 10.7143L53.1333 9.78092L48.8667 12.4476C48.3334 12.8476 47.6667 12.8476 47.1334 12.4476C45.8 11.6476 44.3334 10.981 42.7334 10.581C42.0667 10.4476 41.6667 9.91426 41.5334 9.38093L40.4667 4.58097H39.1334L38.0667 9.38093C37.9334 10.0476 37.4001 10.4476 36.8667 10.581C35.2667 10.981 33.6667 11.5142 32.3334 12.4476C31.8 12.8476 31.1334 12.8476 30.6 12.4476L26.4667 9.78092L25.4001 10.4476L28.0667 14.7143C28.4667 15.2476 28.4667 15.9142 28.0667 16.4476C27.2667 17.7809 26.6001 19.2476 26.2001 20.8476C26.0667 21.5143 25.5334 21.9143 25 22.0476L20.2001 23.1142V24.4476L25 25.5143C25.6667 25.6476 26.0667 26.1809 26.2001 26.7142C26.6001 28.3142 27.1334 29.7809 28.0667 31.2476C28.4667 31.7809 28.4667 32.4476 28.0667 32.9809L25.4001 37.1142L26.3334 38.0476L30.4667 35.3809C31 34.9809 31.6667 34.9809 32.2001 35.3809C33.5334 36.1809 35.1334 36.8476 36.7334 37.2476C37.6667 37.3809 38.2 38.3143 37.9334 39.2476C37.8 40.1809 36.8667 40.7142 35.9334 40.4476C34.2 40.0476 32.7334 39.5142 31.2667 38.7142L26.8667 41.5143C26.8667 41.9143 26.4667 42.0476 26.2001 42.0476Z" fill="#94A11A"/>
<path d="M39.6666 80.8478C39.5332 80.8478 39.5332 80.8478 39.3999 80.8478L8.73327 75.7811C7.93328 75.6477 7.2666 74.9811 7.2666 74.1811V56.1812C7.2666 55.2478 8.06658 54.4478 8.99992 54.4478C9.93325 54.4478 10.7333 55.2478 10.7333 56.1812V72.7144L39.9332 77.3811C40.8666 77.5144 41.3999 78.4478 41.2666 79.2478C41.2666 80.3144 40.4666 80.8478 39.6666 80.8478Z" fill="#94A11A"/>
<path d="M39.6666 80.8475C39.2666 80.8475 38.8666 80.7141 38.6 80.4475C38.2 80.1808 38.0667 79.5142 38.0667 78.9808V45.1142C38.0667 44.1808 38.8666 43.3809 39.8 43.3809C40.7333 43.3809 41.5333 44.1808 41.5333 45.1142V77.1141L68.4666 72.7142V56.1809C68.4666 55.2476 69.2666 54.4475 70.2 54.4475C71.1333 54.4475 71.9333 55.2476 71.9333 56.1809V74.1809C71.9333 74.9809 71.3999 75.6475 70.5999 75.7808L40.3333 80.8475C39.9333 80.8475 39.8 80.8475 39.6666 80.8475Z" fill="#94A11A"/>
<path fill-rule="evenodd" clip-rule="evenodd" d="M49.5332 62.7142C48.9998 62.7142 48.4665 62.4476 48.0665 61.9143L38.1998 46.0476C37.9332 45.5143 37.7998 44.9809 38.0665 44.4476C38.3332 43.9142 38.7332 43.5143 39.2665 43.5143L69.7998 37.7809C70.5998 37.6476 71.2664 38.0476 71.6664 38.7143L78.7331 53.6476C78.9998 54.0476 78.9998 54.5809 78.7331 55.1142C78.4665 55.5142 78.0664 55.9142 77.6664 56.0476L49.9331 62.5809C49.7998 62.5809 49.6665 62.7142 49.5332 62.7142ZM42.4665 46.3143L50.4665 59.1142L74.9998 53.3809L69.2665 41.3809L42.4665 46.3143Z" fill="#94A11A"/>
<path fill-rule="evenodd" clip-rule="evenodd" d="M29.4 62.7144C29.3111 62.7144 29.1777 62.7144 28.9999 62.7144L1.26665 56.1811C0.733316 56.0478 0.333333 55.7811 0.2 55.2478C-0.0666666 54.8478 -0.0666666 54.1811 0.2 53.7811L7.93331 38.8478C8.33331 38.1811 8.99996 37.7811 9.66662 37.9145L40.0666 43.5145C40.5999 43.6478 41.1333 44.0477 41.2666 44.4477C41.5333 44.9811 41.3999 45.5144 41.1333 46.0478L30.7333 61.9144C30.4666 62.3144 29.9333 62.7144 29.4 62.7144ZM4.2 53.2478L28.6 58.9811L36.9999 46.1811L10.3333 41.2478L4.2 53.2478Z" fill="#94A11A"/>
<path d="M77.2664 80.9809H3.39986C2.46653 80.9809 1.5332 80.1808 1.5332 79.1142C1.5332 78.1808 2.46653 77.3809 3.39986 77.3809H77.2664C78.1998 77.3809 78.9998 78.1808 78.9998 79.1142C78.9998 80.1808 78.1998 80.9809 77.2664 80.9809Z" fill="#94A11A"/>
<path d="M9.40015 41.1144C8.86682 41.1144 8.33348 40.8477 7.93348 40.3144C7.40015 39.5144 7.6668 38.4477 8.4668 38.0477L16.3335 32.9811C17.1335 32.4477 18.2001 32.7144 18.7335 33.5144C19.2668 34.3144 19.0001 35.381 18.0668 35.781L10.2002 40.8478C9.93349 41.1144 9.66682 41.1144 9.40015 41.1144Z" fill="#94A11A"/>
<path d="M70.0666 41.1142C69.8 41.1142 69.4 40.9809 69.1333 40.8476L61.2666 35.7808C60.4666 35.2475 60.3333 34.3142 60.7333 33.5142C61.2666 32.7142 62.2 32.5809 63 32.9809L70.8666 38.0475C71.6666 38.5808 71.8 39.5142 71.4 40.3142C71.1333 40.8475 70.6 41.1142 70.0666 41.1142Z" fill="#94A11A"/>
</svg>
