<svg width="82" height="81" viewBox="0 0 82 81" fill="none" xmlns="http://www.w3.org/2000/svg">
<path d="M54.5946 65.5757H57.973V68.9541H54.5946V65.5757Z" fill="#94A11A"/>
<path d="M49.4595 65.5757H52.8379V68.9541H49.4595V65.5757Z" fill="#94A11A"/>
<path d="M44.3243 65.5757H47.7027V68.9541H44.3243V65.5757Z" fill="#94A11A"/>
<path d="M71.6216 80.9808C70.6757 80.9808 69.7297 80.17 69.7297 79.224V50.3051C69.7297 49.3591 70.6757 48.5483 71.6216 48.5483C72.5676 48.5483 73.3784 49.3591 73.3784 50.3051V79.3591C73.3784 80.1699 72.5676 80.9808 71.6216 80.9808Z" fill="#94A11A"/>
<path d="M30.6757 80.981C29.7298 80.981 28.9189 80.1702 28.9189 79.2242V36.6567C28.9189 35.7107 29.7298 34.8999 30.6757 34.8999C31.6217 34.8999 32.4325 35.7107 32.4325 36.6567V79.3593C32.4325 80.1702 31.6217 80.981 30.6757 80.981Z" fill="#94A11A"/>
<path d="M12.027 80.9808C11.0811 80.9808 10.2703 80.17 10.2703 79.224V50.3051C10.2703 49.3591 11.0811 48.5483 12.027 48.5483C12.973 48.5483 13.7838 49.3591 13.7838 50.3051V79.3591C13.6486 80.1699 12.8378 80.9808 12.027 80.9808Z" fill="#94A11A"/>
<path d="M80.1352 51.9269H39.3243C38.7838 51.9269 38.2433 51.6567 37.8379 51.1161L29.1892 37.4675C28.9189 36.9269 28.7838 36.2513 29.1892 35.7107C29.4595 35.1702 30 34.8999 30.6757 34.8999H35.8108C36.7568 34.8999 37.7027 35.7107 37.7027 36.6567C37.7027 37.6026 36.7568 38.4134 35.8108 38.4134H33.7838L40.2703 48.6837H77.027L70.6757 38.4134H47.7027C46.7568 38.4134 45.946 37.6026 45.946 36.6567C45.946 35.7107 46.7568 34.8999 47.7027 34.8999H71.6216C72.1622 34.8999 72.7027 35.1702 73.1081 35.7107L81.6216 49.3594C81.8919 49.8999 82.027 50.5756 81.6216 51.1161C81.2162 51.6567 80.6757 51.9269 80.1352 51.9269Z" fill="#94A11A"/>
<path d="M68.1081 38.2783C67.1621 38.2783 66.3513 37.4675 66.3513 36.5215V4.35933H54.4594V36.6567C54.4594 37.6026 53.5135 38.4134 52.5675 38.4134C51.6216 38.4134 50.8108 37.6026 50.8108 36.6567V2.73774C50.8108 1.79179 51.6216 0.980957 52.5675 0.980957H67.9729C68.9189 0.980957 69.7297 1.79179 69.7297 2.73774V36.6567C69.8648 37.6026 69.054 38.2783 68.1081 38.2783Z" fill="#94A11A"/>
<path fill-rule="evenodd" clip-rule="evenodd" d="M47.7026 38.2784H35.6756C34.7296 38.2784 33.9188 37.4676 33.9188 36.5216V13.4135C33.9188 13.1432 34.054 12.873 34.1891 12.6027L40.2702 1.92703C40.5404 1.38649 41.081 1.11621 41.7567 1.11621C42.4323 1.11621 42.9729 1.38649 43.2431 1.92703L49.1891 12.6027C49.3242 12.873 49.4594 13.1432 49.4594 13.4135V36.6568C49.4594 37.6027 48.6485 38.2784 47.7026 38.2784ZM37.5675 34.9H46.081V13.8189L41.7567 6.11623L37.5675 13.8189V34.9Z" fill="#94A11A"/>
<path d="M41.7568 38.4133C40.8108 38.4133 40 37.6025 40 36.6566V18.8188C40 17.8728 40.8108 17.062 41.7568 17.062C42.7027 17.062 43.5135 17.8728 43.5135 18.8188V36.7917C43.5135 37.6025 42.7027 38.4133 41.7568 38.4133Z" fill="#94A11A"/>
<path d="M47.7026 20.4405H35.6756C34.7296 20.4405 33.9188 19.6297 33.9188 18.6837C33.9188 17.7378 34.7296 16.927 35.6756 16.927H47.7026C48.6485 16.927 49.4594 17.7378 49.4594 18.6837C49.4594 19.7648 48.6485 20.4405 47.7026 20.4405Z" fill="#94A11A"/>
<path d="M22.1621 19.0893C21.2162 19.0893 20.2703 18.2785 20.2703 17.3325V3.54877C20.2703 2.60283 21.2162 1.79199 22.1621 1.79199C23.1081 1.79199 23.9189 2.60283 23.9189 3.54877V17.3325C23.9189 18.2785 23.1081 19.0893 22.1621 19.0893Z" fill="#94A11A"/>
<path d="M17.5676 33.2783C16.7567 33.2783 16.0811 32.7377 15.9459 32.062L12.027 16.3864C11.8919 15.981 12.027 15.4404 12.2973 15.035L21.0811 1.79178C21.3513 1.25124 21.8919 0.980957 22.5676 0.980957C23.1081 0.980957 23.6486 1.25124 23.9189 1.79178L32.2973 15.035C32.5675 15.4404 32.5676 15.8459 32.5676 16.3864L28.6486 32.1972C28.3784 33.1431 27.5676 33.6837 26.6216 33.4134C25.6757 33.1431 25.1351 32.3323 25.4054 31.3864L29.1892 16.2512L22.7027 5.84583L15.8108 16.2512L19.5946 31.2513C19.8649 32.1972 19.3243 33.008 18.3784 33.2783C17.8378 33.2783 17.7027 33.2783 17.5676 33.2783Z" fill="#94A11A"/>
<path fill-rule="evenodd" clip-rule="evenodd" d="M22.2972 23.1433C20.1351 23.1433 18.3783 21.5216 18.3783 19.3594C18.3783 17.3324 19.9999 15.5757 22.2972 15.5757C24.3242 15.5757 26.081 17.1973 26.081 19.3594C26.081 21.5216 24.3242 23.1433 22.2972 23.1433ZM22.2972 19.0892C22.0269 19.0892 21.8918 19.2243 21.8918 19.4946C21.8918 19.7649 22.0269 19.9 22.2972 19.9C22.5675 19.9 22.7026 19.7649 22.7026 19.4946C22.7026 19.2243 22.5675 19.0892 22.2972 19.0892Z" fill="#94A11A"/>
<path d="M28.1081 38.2784C27.1621 38.2784 26.3513 37.4676 26.3513 36.5216C26.3513 35.5757 27.1621 34.7649 28.1081 34.7649C28.3783 34.7649 28.6486 34.6298 28.7837 34.4946C28.9189 34.3595 29.054 34.2244 29.054 33.8189C29.054 33.2784 28.6486 33.0081 28.1081 33.0081H16.2162C15.9459 33.0081 15.6756 33.1433 15.5405 33.2784C15.4054 33.4135 15.2702 33.5487 15.2702 33.8189C15.2702 34.3595 15.6756 34.7649 16.2162 34.7649C17.1621 34.7649 17.9729 35.5757 17.9729 36.5216C17.9729 37.4676 17.1621 38.2784 16.2162 38.2784C13.9189 38.2784 11.8918 36.3865 11.8918 33.9541C11.8918 32.7379 12.2973 31.7919 13.2432 30.9811C14.054 30.1703 15.1351 29.7649 16.2162 29.7649H28.1081C30.5405 29.7649 32.4324 31.6568 32.4324 33.9541C32.4324 35.0352 32.027 36.1162 31.2162 36.927C30.2702 37.873 29.1891 38.2784 28.1081 38.2784Z" fill="#94A11A"/>
<path d="M68.1081 18.0079H61.3514C60.4054 18.0079 59.5946 17.1971 59.5946 16.2512C59.5946 15.3052 60.4054 14.4944 61.3514 14.4944H68.1081C69.0541 14.4944 69.8649 15.3052 69.8649 16.2512C69.8649 17.1971 69.0541 18.0079 68.1081 18.0079Z" fill="#94A11A"/>
<path d="M68.1081 11.2512H62.9729C62.027 11.2512 61.2162 10.4404 61.2162 9.49442C61.2162 8.41334 62.027 7.60254 62.9729 7.60254H68.1081C69.054 7.60254 69.8648 8.41334 69.8648 9.49442C69.8648 10.4404 69.054 11.2512 68.1081 11.2512Z" fill="#94A11A"/>
<path d="M68.1081 24.7647H62.9729C62.027 24.7647 61.2162 23.9539 61.2162 23.008C61.2162 22.0621 62.027 21.2512 62.9729 21.2512H68.1081C69.054 21.2512 69.8648 22.0621 69.8648 23.008C69.8648 23.9539 69.054 24.7647 68.1081 24.7647Z" fill="#94A11A"/>
<path d="M68.1081 31.6568H61.3514C60.4054 31.6568 59.5946 30.846 59.5946 29.9001C59.5946 28.9541 60.4054 28.1433 61.3514 28.1433H68.1081C69.0541 28.1433 69.8649 28.9541 69.8649 29.9001C69.8649 30.846 69.0541 31.6568 68.1081 31.6568Z" fill="#94A11A"/>
<path fill-rule="evenodd" clip-rule="evenodd" d="M22.2973 51.9269H3.37841C2.70273 51.9269 2.16218 51.6567 1.89191 51.1161C1.62164 50.5756 1.62164 49.8999 1.89191 49.3594L10.5406 35.7107C10.8108 35.1702 11.3514 34.8999 12.027 34.8999H30.6757C31.3514 34.8999 31.8919 35.1702 32.1622 35.7107C32.4324 36.2513 32.4324 36.9269 32.1622 37.4675L23.6487 51.1161C23.3784 51.6567 22.8379 51.9269 22.2973 51.9269ZM6.62164 48.5486H21.3514L27.7027 38.2783H12.8379L6.62164 48.5486Z" fill="#94A11A"/>
<path d="M76.7567 80.9811H1.75675C0.810804 80.9811 0 80.1703 0 79.2243C0 78.2784 0.810804 77.4675 1.75675 77.4675H76.7567C77.7027 77.4675 78.5135 78.2784 78.5135 79.2243C78.3784 80.1703 77.5676 80.9811 76.7567 80.9811Z" fill="#94A11A"/>
<path fill-rule="evenodd" clip-rule="evenodd" d="M64.7297 74.0889H37.5676C36.4865 74.0889 35.6757 73.2782 35.6757 72.3322V57.0619C35.6757 56.116 36.4865 55.3052 37.5676 55.3052H64.7297C65.6757 55.3052 66.4865 56.116 66.4865 57.0619V72.4674C66.4865 73.2782 65.6757 74.0889 64.7297 74.0889ZM39.3243 70.7106H63.1081V58.6836H39.3243V70.7106Z" fill="#94A11A"/>
</svg>
