<svg width="1567" height="295" viewBox="0 0 1567 295" fill="none" xmlns="http://www.w3.org/2000/svg">
<path d="M0.40139 219V5.8351H89.6261C105.258 5.8351 119.571 8.47428 132.564 13.7527C145.557 18.828 156.722 26.1365 166.061 35.6782C175.603 45.2199 182.911 56.4871 187.987 69.48C193.062 82.473 195.6 96.7855 195.6 112.418C195.6 128.05 193.062 142.464 187.987 155.66C182.911 168.652 175.603 179.92 166.061 189.461C156.722 198.8 145.557 206.109 132.564 211.387C119.571 216.462 105.258 219 89.6261 219H0.40139ZM52.17 183.676L45.166 173.322H88.1035C96.6301 173.322 104.243 171.901 110.943 169.059C117.642 166.013 123.326 161.852 127.996 156.573C132.868 151.295 136.624 144.9 139.263 137.388C141.902 129.877 143.222 121.553 143.222 112.418C143.222 103.282 141.902 94.9583 139.263 87.4468C136.624 79.9353 132.868 73.5403 127.996 68.262C123.326 62.9836 117.642 58.9233 110.943 56.0811C104.243 53.0359 96.6301 51.5133 88.1035 51.5133H44.2525L52.17 41.7686V183.676ZM323.639 222.045C307.398 222.045 292.578 219.305 279.179 213.823C265.78 208.342 254.106 200.627 244.159 190.68C234.211 180.732 226.497 169.059 221.015 155.66C215.534 142.261 212.793 127.542 212.793 111.504C212.793 95.4659 215.534 80.7473 221.015 67.3484C226.497 53.9495 234.211 42.2762 244.159 32.3285C254.106 22.3808 265.78 14.6662 279.179 9.18484C292.578 3.70346 307.296 0.962764 323.334 0.962764C339.372 0.962764 354.091 3.70346 367.49 9.18484C380.889 14.6662 392.562 22.3808 402.51 32.3285C412.458 42.2762 420.071 53.9495 425.349 67.3484C430.83 80.7473 433.571 95.4659 433.571 111.504C433.571 127.339 430.83 142.058 425.349 155.66C420.071 169.059 412.458 180.732 402.51 190.68C392.562 200.627 380.889 208.342 367.49 213.823C354.091 219.305 339.474 222.045 323.639 222.045ZM323.334 173.322C331.658 173.322 339.271 171.799 346.173 168.754C353.279 165.709 359.369 161.445 364.445 155.964C369.723 150.28 373.783 143.682 376.626 136.17C379.468 128.659 380.889 120.437 380.889 111.504C380.889 102.571 379.468 94.3493 376.626 86.8378C373.783 79.3262 369.723 72.8298 364.445 67.3484C359.369 61.664 353.279 57.2992 346.173 54.254C339.271 51.2088 331.658 49.6862 323.334 49.6862C315.011 49.6862 307.296 51.2088 300.191 54.254C293.288 57.2992 287.198 61.664 281.919 67.3484C276.641 72.8298 272.581 79.3262 269.739 86.8378C267.099 94.3493 265.78 102.571 265.78 111.504C265.78 120.437 267.099 128.76 269.739 136.475C272.581 143.986 276.641 150.483 281.919 155.964C287.198 161.445 293.288 165.709 300.191 168.754C307.296 171.799 315.011 173.322 323.334 173.322ZM464.487 219V5.8351H510.774L588.427 132.211L555.234 131.907L633.801 5.8351H678.261V219H628.015V152.614C628.015 134.343 628.421 117.899 629.233 103.282C630.248 88.6649 631.872 74.1494 634.105 59.7354L639.891 75.5705L580.814 167.231H560.716L502.857 76.1795L508.643 59.7354C510.876 73.3373 512.398 87.3453 513.21 101.759C514.226 115.97 514.733 132.922 514.733 152.614V219H464.487ZM812.533 220.827C794.871 220.827 779.138 217.274 765.333 210.169C751.528 202.86 740.666 192.913 732.749 180.326C725.034 167.739 721.177 153.325 721.177 137.084V5.8351H773.555V134.343C773.555 142.058 775.28 149.062 778.732 155.355C782.183 161.445 786.852 166.318 792.74 169.972C798.627 173.423 805.225 175.149 812.533 175.149C820.248 175.149 827.049 173.423 832.936 169.972C839.027 166.318 843.899 161.445 847.553 155.355C851.208 149.062 853.035 142.058 853.035 134.343V5.8351H903.585V137.084C903.585 153.325 899.627 167.739 891.709 180.326C883.994 192.913 873.235 202.86 859.43 210.169C845.625 217.274 829.993 220.827 812.533 220.827ZM946.416 219V5.8351H1040.51C1055.13 5.8351 1067.51 7.96675 1077.66 12.2301C1087.82 16.2903 1095.43 22.2793 1100.5 30.1968C1105.78 37.9113 1108.42 47.25 1108.42 58.2128C1108.42 70.3936 1105.38 80.6458 1099.29 88.9694C1093.4 97.293 1084.77 102.876 1073.4 105.718L1072.79 99.9322C1082.33 101.962 1090.56 105.515 1097.46 110.59C1104.56 115.666 1110.05 121.959 1113.9 129.471C1117.76 136.779 1119.69 145.103 1119.69 154.441C1119.69 165.201 1117.86 174.641 1114.21 182.762C1110.55 190.68 1105.27 197.379 1098.37 202.86C1091.47 208.342 1083.35 212.402 1074.01 215.041C1064.87 217.68 1054.72 219 1043.56 219H946.416ZM995.139 175.758H1041.73C1047.42 175.758 1052.19 174.844 1056.04 173.017C1060.1 171.19 1063.25 168.551 1065.48 165.1C1067.72 161.445 1068.83 157.081 1068.83 152.005C1068.83 147.336 1067.62 143.377 1065.18 140.129C1062.95 136.881 1059.7 134.445 1055.43 132.82C1051.17 130.993 1046.1 130.08 1040.21 130.08H995.139V175.758ZM995.139 91.4056H1033.2C1038.48 91.4056 1042.95 90.5935 1046.6 88.9694C1050.46 87.1423 1053.3 84.7061 1055.13 81.6609C1057.16 78.4127 1058.18 74.5554 1058.18 70.0891C1058.18 63.5926 1055.94 58.5173 1051.48 54.863C1047.01 51.0058 1040.31 49.0771 1031.38 49.0771H995.139V91.4056ZM1247.94 222.045C1231.7 222.045 1216.88 219.305 1203.48 213.823C1190.09 208.342 1178.41 200.627 1168.46 190.68C1158.52 180.732 1150.8 169.059 1145.32 155.66C1139.84 142.261 1137.1 127.542 1137.1 111.504C1137.1 95.4659 1139.84 80.7473 1145.32 67.3484C1150.8 53.9495 1158.52 42.2762 1168.46 32.3285C1178.41 22.3808 1190.09 14.6662 1203.48 9.18484C1216.88 3.70346 1231.6 0.962764 1247.64 0.962764C1263.68 0.962764 1278.4 3.70346 1291.8 9.18484C1305.19 14.6662 1316.87 22.3808 1326.82 32.3285C1336.76 42.2762 1344.38 53.9495 1349.65 67.3484C1355.14 80.7473 1357.88 95.4659 1357.88 111.504C1357.88 127.339 1355.14 142.058 1349.65 155.66C1344.38 169.059 1336.76 180.732 1326.82 190.68C1316.87 200.627 1305.19 208.342 1291.8 213.823C1278.4 219.305 1263.78 222.045 1247.94 222.045ZM1247.64 173.322C1255.96 173.322 1263.58 171.799 1270.48 168.754C1277.58 165.709 1283.67 161.445 1288.75 155.964C1294.03 150.28 1298.09 143.682 1300.93 136.17C1303.77 128.659 1305.19 120.437 1305.19 111.504C1305.19 102.571 1303.77 94.3493 1300.93 86.8378C1298.09 79.3262 1294.03 72.8298 1288.75 67.3484C1283.67 61.664 1277.58 57.2992 1270.48 54.254C1263.58 51.2088 1255.96 49.6862 1247.64 49.6862C1239.32 49.6862 1231.6 51.2088 1224.5 54.254C1217.59 57.2992 1211.5 61.664 1206.22 67.3484C1200.95 72.8298 1196.89 79.3262 1194.04 86.8378C1191.4 94.3493 1190.09 102.571 1190.09 111.504C1190.09 120.437 1191.4 128.76 1194.04 136.475C1196.89 143.986 1200.95 150.483 1206.22 155.964C1211.5 161.445 1217.59 165.709 1224.5 168.754C1231.6 171.799 1239.32 173.322 1247.64 173.322ZM1503.24 219L1437.16 123.38L1352.51 5.8351H1415.54L1480.1 100.237L1566.28 219H1503.24ZM1350.98 219L1432.29 102.977L1474.01 127.035L1410.97 219H1350.98ZM1484.97 120.031L1443.56 96.887L1503.24 5.8351H1563.24L1484.97 120.031ZM1324.79 294V285.42H1331.87V260.58H1324.79V252H1349.21V260.58H1342.07V285.42H1349.21V294H1324.79ZM1357.11 294V252H1366.23L1381.53 276.9L1374.99 276.84L1390.47 252H1399.23V294H1389.33V280.92C1389.33 277.32 1389.41 274.08 1389.57 271.2C1389.77 268.32 1390.09 265.46 1390.53 262.62L1391.67 265.74L1380.03 283.8H1376.07L1364.67 265.86L1365.81 262.62C1366.25 265.3 1366.55 268.06 1366.71 270.9C1366.91 273.7 1367.01 277.04 1367.01 280.92V294H1357.11ZM1407.99 294V252H1426.11C1428.75 252 1431.09 252.6 1433.13 253.8C1435.21 255 1436.85 256.64 1438.05 258.72C1439.29 260.8 1439.91 263.14 1439.91 265.74C1439.91 268.46 1439.29 270.9 1438.05 273.06C1436.85 275.18 1435.21 276.86 1433.13 278.1C1431.09 279.34 1428.75 279.96 1426.11 279.96H1418.19V294H1407.99ZM1418.01 271.02H1424.67C1425.55 271.02 1426.35 270.8 1427.07 270.36C1427.79 269.92 1428.37 269.32 1428.81 268.56C1429.25 267.8 1429.47 266.92 1429.47 265.92C1429.47 264.88 1429.25 264 1428.81 263.28C1428.37 262.56 1427.79 262 1427.07 261.6C1426.35 261.2 1425.55 261 1424.67 261H1418.01V271.02ZM1465.06 294.6C1461.86 294.6 1458.94 294.06 1456.3 292.98C1453.66 291.9 1451.36 290.38 1449.4 288.42C1447.44 286.46 1445.92 284.16 1444.84 281.52C1443.76 278.88 1443.22 275.98 1443.22 272.82C1443.22 269.66 1443.76 266.76 1444.84 264.12C1445.92 261.48 1447.44 259.18 1449.4 257.22C1451.36 255.26 1453.66 253.74 1456.3 252.66C1458.94 251.58 1461.84 251.04 1465 251.04C1468.16 251.04 1471.06 251.58 1473.7 252.66C1476.34 253.74 1478.64 255.26 1480.6 257.22C1482.56 259.18 1484.06 261.48 1485.1 264.12C1486.18 266.76 1486.72 269.66 1486.72 272.82C1486.72 275.94 1486.18 278.84 1485.1 281.52C1484.06 284.16 1482.56 286.46 1480.6 288.42C1478.64 290.38 1476.34 291.9 1473.7 292.98C1471.06 294.06 1468.18 294.6 1465.06 294.6ZM1465 285C1466.64 285 1468.14 284.7 1469.5 284.1C1470.9 283.5 1472.1 282.66 1473.1 281.58C1474.14 280.46 1474.94 279.16 1475.5 277.68C1476.06 276.2 1476.34 274.58 1476.34 272.82C1476.34 271.06 1476.06 269.44 1475.5 267.96C1474.94 266.48 1474.14 265.2 1473.1 264.12C1472.1 263 1470.9 262.14 1469.5 261.54C1468.14 260.94 1466.64 260.64 1465 260.64C1463.36 260.64 1461.84 260.94 1460.44 261.54C1459.08 262.14 1457.88 263 1456.84 264.12C1455.8 265.2 1455 266.48 1454.44 267.96C1453.92 269.44 1453.66 271.06 1453.66 272.82C1453.66 274.58 1453.92 276.22 1454.44 277.74C1455 279.22 1455.8 280.5 1456.84 281.58C1457.88 282.66 1459.08 283.5 1460.44 284.1C1461.84 284.7 1463.36 285 1465 285ZM1492.81 294V252H1511.71C1514.39 252 1516.81 252.58 1518.97 253.74C1521.17 254.9 1522.89 256.5 1524.13 258.54C1525.37 260.54 1525.99 262.82 1525.99 265.38C1525.99 268.02 1525.37 270.4 1524.13 272.52C1522.89 274.6 1521.19 276.24 1519.03 277.44C1516.87 278.64 1514.43 279.24 1511.71 279.24H1502.53V294H1492.81ZM1516.09 294L1505.41 275.04L1515.85 273.54L1527.73 294H1516.09ZM1502.53 271.44H1510.81C1511.85 271.44 1512.75 271.22 1513.51 270.78C1514.31 270.3 1514.91 269.64 1515.31 268.8C1515.75 267.96 1515.97 267 1515.97 265.92C1515.97 264.84 1515.73 263.9 1515.25 263.1C1514.77 262.26 1514.07 261.62 1513.15 261.18C1512.27 260.74 1511.19 260.52 1509.91 260.52H1502.53V271.44ZM1541.08 294V261H1528.6V252H1564.06V261H1551.28V294H1541.08Z" fill="url(#paint0_linear_226_138)"/>
<defs>
<linearGradient id="paint0_linear_226_138" x1="-27" y1="111.5" x2="1566" y2="111.5" gradientUnits="userSpaceOnUse">
<stop stop-color="#FAF4E8"/>
<stop offset="1" stop-color="#FAF4E8" stop-opacity="0.58"/>
</linearGradient>
</defs>
</svg>
