<svg width="102" height="66" viewBox="0 0 102 66" fill="none" xmlns="http://www.w3.org/2000/svg">
<path d="M42.8086 0.0859375L100.712 13.6514L101.488 13.833V45.1514C101.488 45.7062 101.038 46.1561 100.483 46.1562C99.9284 46.1562 99.4785 45.7063 99.4785 45.1514V15.4258L42.7188 2.12891L14.9473 16.9893V22.2891L21.3916 19.4863L42.1787 10.4424L42.6045 10.2578L43.0215 10.4609L65.6299 21.5146L66.1934 21.79V46.1562H61.6719V50.3008H43.585V61.9219L41.957 60.6357L37.9473 57.4668L33.6973 54.1953H28.0322C27.9565 54.5372 27.8329 54.9445 27.6289 55.3594C27.3584 55.9095 26.9365 56.4934 26.2842 56.9404C25.625 57.392 24.7881 57.6644 23.7588 57.6758C22.7248 57.6871 21.8788 57.4259 21.209 56.9785C20.5473 56.5365 20.1154 55.9512 19.835 55.3994C19.6168 54.97 19.4835 54.547 19.4014 54.1953H9.7998C9.72764 54.5607 9.60166 55.0183 9.37207 55.4854C9.10161 56.0353 8.67948 56.6184 8.02734 57.0654C7.36817 57.5171 6.53124 57.7894 5.50195 57.8008C4.46788 57.8122 3.62204 57.551 2.95215 57.1035C2.29045 56.6615 1.85756 56.0772 1.57715 55.5254C1.33233 55.0435 1.19668 54.5694 1.11816 54.1953H1.00488C0.450053 54.1953 0.000199914 53.7452 0 53.1904C0.000127626 52.6356 0.450009 52.1855 1.00488 52.1855H34.3809L34.6514 52.3936L39.1738 55.875L39.1836 55.8828L41.5752 57.7715V50.3008H0V28.792L0.604492 28.5293L12.9375 23.1641V15.7861L13.4678 15.502L42.1055 0.178711L42.4395 0L42.8086 0.0859375ZM3.24023 54.3203C3.2773 54.4177 3.31968 54.5169 3.36914 54.6143C3.53325 54.9372 3.75843 55.2256 4.06836 55.4326C4.37034 55.6343 4.81109 55.7984 5.47949 55.791C6.15245 55.7836 6.59322 55.6117 6.8916 55.4072C7.19637 55.1982 7.41341 54.9137 7.56836 54.5986C7.61365 54.5065 7.65174 54.4123 7.68555 54.3203H3.24023ZM21.498 54.1953C21.5351 54.2927 21.5765 54.3919 21.626 54.4893C21.7901 54.8122 22.0153 55.1006 22.3252 55.3076C22.6271 55.5093 23.0682 55.6733 23.7363 55.666C24.4093 55.6586 24.85 55.4867 25.1484 55.2822C25.4536 55.0731 25.6701 54.788 25.8252 54.4727C25.8704 54.3806 25.9086 54.2872 25.9424 54.1953H21.498ZM2.00977 30.1084V48.292H41.5752V46.1562H12.9375V25.3545L2.00977 30.1084ZM43.585 48.292H59.6621V46.1562H43.585V48.292ZM22.1934 21.3291L14.9473 24.4805V44.1465H41.5752V18.6641L42.8799 19.0713L60.9668 24.7236L61.6719 24.9443V44.1465H64.1836V23.0439L42.5547 12.4697L22.1934 21.3291ZM43.585 44.1465H59.6621V26.4209L43.585 21.3965V44.1465Z" fill="white"/>
<path d="M46.409 60.2367V52.7562H49.5402C50.0887 52.7562 50.591 52.8488 51.047 53.034C51.5029 53.2121 51.8948 53.4686 52.2225 53.8035C52.5573 54.1383 52.8138 54.5337 52.9919 54.9897C53.17 55.4456 53.2591 55.9479 53.2591 56.4964C53.2591 57.045 53.17 57.5508 52.9919 58.0139C52.8138 58.4699 52.5573 58.8653 52.2225 59.2001C51.8948 59.5278 51.5029 59.7843 51.047 59.9695C50.591 60.1477 50.0887 60.2367 49.5402 60.2367H46.409ZM48.2257 58.9971L47.9799 58.6337H49.4867C49.786 58.6337 50.0531 58.5839 50.2882 58.4841C50.5233 58.3773 50.7228 58.2312 50.8867 58.046C51.0576 57.8608 51.1894 57.6363 51.2821 57.3727C51.3747 57.1091 51.421 56.817 51.421 56.4964C51.421 56.1759 51.3747 55.8838 51.2821 55.6202C51.1894 55.3566 51.0576 55.1321 50.8867 54.9469C50.7228 54.7617 50.5233 54.6192 50.2882 54.5195C50.0531 54.4126 49.786 54.3592 49.4867 54.3592H47.9479L48.2257 54.0172V58.9971ZM57.7523 60.3436C57.1824 60.3436 56.6623 60.2474 56.1921 60.055C55.7219 59.8627 55.3122 59.592 54.9631 59.2429C54.614 58.8938 54.3433 58.4841 54.151 58.0139C53.9586 57.5437 53.8624 57.0272 53.8624 56.4644C53.8624 55.9016 53.9586 55.3851 54.151 54.9149C54.3433 54.4446 54.614 54.035 54.9631 53.6859C55.3122 53.3368 55.7219 53.0661 56.1921 52.8737C56.6623 52.6814 57.1788 52.5852 57.7416 52.5852C58.3044 52.5852 58.8209 52.6814 59.2912 52.8737C59.7614 53.0661 60.171 53.3368 60.5201 53.6859C60.8692 54.035 61.1363 54.4446 61.3216 54.9149C61.5139 55.3851 61.6101 55.9016 61.6101 56.4644C61.6101 57.0201 61.5139 57.5366 61.3216 58.0139C61.1363 58.4841 60.8692 58.8938 60.5201 59.2429C60.171 59.592 59.7614 59.8627 59.2912 60.055C58.8209 60.2474 58.308 60.3436 57.7523 60.3436ZM57.7416 58.6337C58.0337 58.6337 58.3009 58.5803 58.5431 58.4734C58.7924 58.3666 59.0062 58.217 59.1843 58.0246C59.3695 57.8251 59.512 57.5936 59.6117 57.33C59.7115 57.0664 59.7614 56.7779 59.7614 56.4644C59.7614 56.1509 59.7115 55.8624 59.6117 55.5988C59.512 55.3352 59.3695 55.1072 59.1843 54.9149C59.0062 54.7154 58.7924 54.5622 58.5431 54.4553C58.3009 54.3485 58.0337 54.295 57.7416 54.295C57.4495 54.295 57.1788 54.3485 56.9294 54.4553C56.6872 54.5622 56.4735 54.7154 56.2883 54.9149C56.103 55.1072 55.9605 55.3352 55.8608 55.5988C55.7682 55.8624 55.7219 56.1509 55.7219 56.4644C55.7219 56.7779 55.7682 57.07 55.8608 57.3407C55.9605 57.6043 56.103 57.8323 56.2883 58.0246C56.4735 58.217 56.6872 58.3666 56.9294 58.4734C57.1788 58.5803 57.4495 58.6337 57.7416 58.6337ZM62.695 60.2367V52.7562H64.3194L67.0444 57.1911L65.8796 57.1804L68.6367 52.7562H70.1969V60.2367H68.4337V57.9071C68.4337 57.2659 68.4479 56.6888 68.4764 56.1759C68.512 55.6629 68.569 55.1535 68.6474 54.6477L68.8504 55.2034L66.7773 58.42H66.072L64.0415 55.2248L64.2446 54.6477C64.3229 55.125 64.3764 55.6166 64.4049 56.1224C64.4405 56.6211 64.4583 57.216 64.4583 57.9071V60.2367H62.695ZM74.9089 60.3008C74.2891 60.3008 73.737 60.1762 73.2525 59.9268C72.7681 59.6703 72.3869 59.3212 72.1091 58.8795C71.8383 58.4378 71.703 57.932 71.703 57.3621V52.7562H73.541V57.2659C73.541 57.5366 73.6016 57.7824 73.7227 58.0032C73.8438 58.217 74.0077 58.388 74.2143 58.5162C74.4209 58.6373 74.6524 58.6979 74.9089 58.6979C75.1796 58.6979 75.4183 58.6373 75.6249 58.5162C75.8386 58.388 76.0096 58.217 76.1379 58.0032C76.2661 57.7824 76.3302 57.5366 76.3302 57.2659V52.7562H78.1042V57.3621C78.1042 57.932 77.9652 58.4378 77.6874 58.8795C77.4167 59.3212 77.0391 59.6703 76.5546 59.9268C76.0702 60.1762 75.5216 60.3008 74.9089 60.3008ZM79.6072 60.2367V52.7562H82.9093C83.4223 52.7562 83.8568 52.831 84.2131 52.9806C84.5693 53.1231 84.8364 53.3333 85.0145 53.6111C85.1998 53.8818 85.2924 54.2095 85.2924 54.5943C85.2924 55.0217 85.1855 55.3815 84.9718 55.6736C84.7652 55.9657 84.4624 56.1616 84.0635 56.2613L84.0421 56.0583C84.3769 56.1295 84.6655 56.2542 84.9077 56.4323C85.157 56.6104 85.3494 56.8313 85.4848 57.0949C85.6201 57.3514 85.6878 57.6435 85.6878 57.9712C85.6878 58.3488 85.6237 58.68 85.4954 58.965C85.3672 59.2429 85.182 59.478 84.9397 59.6703C84.6975 59.8627 84.4125 60.0052 84.0848 60.0978C83.7642 60.1904 83.408 60.2367 83.0162 60.2367H79.6072ZM81.317 58.7192H82.9521C83.1515 58.7192 83.319 58.6872 83.4543 58.6231C83.5968 58.5589 83.7072 58.4663 83.7856 58.3452C83.864 58.217 83.9032 58.0638 83.9032 57.8857C83.9032 57.7218 83.8604 57.5829 83.7749 57.4689C83.6966 57.3549 83.5826 57.2694 83.433 57.2124C83.2833 57.1483 83.1052 57.1163 82.8986 57.1163H81.317V58.7192ZM81.317 55.7591H82.6528C82.8381 55.7591 82.9948 55.7306 83.123 55.6736C83.2584 55.6095 83.3581 55.524 83.4223 55.4171C83.4935 55.3031 83.5291 55.1678 83.5291 55.011C83.5291 54.7831 83.4508 54.6049 83.294 54.4767C83.1373 54.3413 82.9022 54.2737 82.5887 54.2737H81.317V55.7591ZM90.1886 60.3436C89.6187 60.3436 89.0986 60.2474 88.6284 60.055C88.1582 59.8627 87.7486 59.592 87.3995 59.2429C87.0504 58.8938 86.7797 58.4841 86.5873 58.0139C86.3949 57.5437 86.2988 57.0272 86.2988 56.4644C86.2988 55.9016 86.3949 55.3851 86.5873 54.9149C86.7797 54.4446 87.0504 54.035 87.3995 53.6859C87.7486 53.3368 88.1582 53.0661 88.6284 52.8737C89.0986 52.6814 89.6151 52.5852 90.1779 52.5852C90.7408 52.5852 91.2573 52.6814 91.7275 52.8737C92.1977 53.0661 92.6073 53.3368 92.9564 53.6859C93.3055 54.035 93.5727 54.4446 93.7579 54.9149C93.9503 55.3851 94.0464 55.9016 94.0464 56.4644C94.0464 57.0201 93.9503 57.5366 93.7579 58.0139C93.5727 58.4841 93.3055 58.8938 92.9564 59.2429C92.6073 59.592 92.1977 59.8627 91.7275 60.055C91.2573 60.2474 90.7443 60.3436 90.1886 60.3436ZM90.1779 58.6337C90.47 58.6337 90.7372 58.5803 90.9794 58.4734C91.2288 58.3666 91.4425 58.217 91.6206 58.0246C91.8059 57.8251 91.9483 57.5936 92.0481 57.33C92.1478 57.0664 92.1977 56.7779 92.1977 56.4644C92.1977 56.1509 92.1478 55.8624 92.0481 55.5988C91.9483 55.3352 91.8059 55.1072 91.6206 54.9149C91.4425 54.7154 91.2288 54.5622 90.9794 54.4553C90.7372 54.3485 90.47 54.295 90.1779 54.295C89.8859 54.295 89.6151 54.3485 89.3658 54.4553C89.1236 54.5622 88.9098 54.7154 88.7246 54.9149C88.5394 55.1072 88.3969 55.3352 88.2971 55.5988C88.2045 55.8624 88.1582 56.1509 88.1582 56.4644C88.1582 56.7779 88.2045 57.07 88.2971 57.3407C88.3969 57.6043 88.5394 57.8323 88.7246 58.0246C88.9098 58.217 89.1236 58.3666 89.3658 58.4734C89.6151 58.5803 89.8859 58.6337 90.1779 58.6337ZM99.1478 60.2367L96.8289 56.8812L93.858 52.7562H96.0701L98.3356 56.069L101.36 60.2367H99.1478ZM93.8046 60.2367L96.6579 56.1652L98.1219 57.0094L95.9098 60.2367H93.8046ZM98.5066 56.7636L97.0533 55.9514L99.1478 52.7562H101.253L98.5066 56.7636Z" fill="white"/>
<path d="M84.2193 64.5411V63.9304H84.7233V62.1624H84.2193V61.5517H85.9574V62.1624H85.4493V63.9304H85.9574V64.5411H84.2193ZM86.5198 64.5411V61.5517H87.1689L88.2579 63.324L87.7924 63.3197L88.8942 61.5517H89.5177V64.5411H88.8131V63.6101C88.8131 63.3539 88.8188 63.1232 88.8302 62.9183C88.8444 62.7133 88.8672 62.5097 88.8985 62.3076L88.9796 62.5296L88.1512 63.8151H87.8693L87.0579 62.5382L87.139 62.3076C87.1704 62.4983 87.1917 62.6948 87.2031 62.8969C87.2173 63.0962 87.2245 63.3339 87.2245 63.6101V64.5411H86.5198ZM90.1409 64.5411V61.5517H91.4306C91.6185 61.5517 91.7851 61.5944 91.9303 61.6798C92.0783 61.7652 92.1951 61.8819 92.2805 62.03C92.3687 62.178 92.4129 62.3446 92.4129 62.5296C92.4129 62.7232 92.3687 62.8969 92.2805 63.0506C92.1951 63.2015 92.0783 63.3211 91.9303 63.4094C91.7851 63.4976 91.6185 63.5418 91.4306 63.5418H90.8669V64.5411H90.1409ZM90.8541 62.9054H91.3281C91.3908 62.9054 91.4477 62.8898 91.499 62.8585C91.5502 62.8272 91.5915 62.7844 91.6228 62.7304C91.6541 62.6763 91.6698 62.6136 91.6698 62.5425C91.6698 62.4684 91.6541 62.4058 91.6228 62.3545C91.5915 62.3033 91.5502 62.2634 91.499 62.235C91.4477 62.2065 91.3908 62.1923 91.3281 62.1923H90.8541V62.9054ZM94.2027 64.5838C93.9749 64.5838 93.7671 64.5453 93.5792 64.4685C93.3913 64.3916 93.2276 64.2834 93.0881 64.1439C92.9486 64.0044 92.8404 63.8407 92.7635 63.6528C92.6866 63.4649 92.6482 63.2585 92.6482 63.0336C92.6482 62.8086 92.6866 62.6022 92.7635 62.4143C92.8404 62.2264 92.9486 62.0627 93.0881 61.9232C93.2276 61.7837 93.3913 61.6755 93.5792 61.5987C93.7671 61.5218 93.9735 61.4834 94.1984 61.4834C94.4233 61.4834 94.6297 61.5218 94.8176 61.5987C95.0055 61.6755 95.1692 61.7837 95.3087 61.9232C95.4482 62.0627 95.555 62.2264 95.629 62.4143C95.7059 62.6022 95.7443 62.8086 95.7443 63.0336C95.7443 63.2556 95.7059 63.462 95.629 63.6528C95.555 63.8407 95.4482 64.0044 95.3087 64.1439C95.1692 64.2834 95.0055 64.3916 94.8176 64.4685C94.6297 64.5453 94.4247 64.5838 94.2027 64.5838ZM94.1984 63.9005C94.3151 63.9005 94.4219 63.8791 94.5187 63.8364C94.6183 63.7937 94.7038 63.7339 94.7749 63.6571C94.8489 63.5773 94.9059 63.4848 94.9457 63.3795C94.9856 63.2741 95.0055 63.1588 95.0055 63.0336C95.0055 62.9083 94.9856 62.793 94.9457 62.6877C94.9059 62.5823 94.8489 62.4912 94.7749 62.4143C94.7038 62.3346 94.6183 62.2734 94.5187 62.2307C94.4219 62.188 94.3151 62.1666 94.1984 62.1666C94.0817 62.1666 93.9735 62.188 93.8738 62.2307C93.777 62.2734 93.6916 62.3346 93.6176 62.4143C93.5436 62.4912 93.4866 62.5823 93.4468 62.6877C93.4098 62.793 93.3913 62.9083 93.3913 63.0336C93.3913 63.1588 93.4098 63.2756 93.4468 63.3837C93.4866 63.4891 93.5436 63.5802 93.6176 63.6571C93.6916 63.7339 93.777 63.7937 93.8738 63.8364C93.9735 63.8791 94.0817 63.9005 94.1984 63.9005ZM96.1779 64.5411V61.5517H97.5231C97.7139 61.5517 97.8861 61.593 98.0398 61.6755C98.1964 61.7581 98.3189 61.872 98.4071 62.0172C98.4954 62.1595 98.5395 62.3218 98.5395 62.504C98.5395 62.6919 98.4954 62.8613 98.4071 63.0122C98.3189 63.1603 98.1979 63.277 98.0441 63.3624C97.8904 63.4478 97.7167 63.4905 97.5231 63.4905H96.8697V64.5411H96.1779ZM97.8349 64.5411L97.0747 63.1916L97.8178 63.0848L98.6633 64.5411H97.8349ZM96.8697 62.9353H97.4591C97.5331 62.9353 97.5971 62.9197 97.6512 62.8884C97.7082 62.8542 97.7509 62.8072 97.7793 62.7474C97.8107 62.6877 97.8263 62.6193 97.8263 62.5425C97.8263 62.4656 97.8092 62.3987 97.7751 62.3417C97.7409 62.282 97.6911 62.2364 97.6256 62.2051C97.563 62.1738 97.4861 62.1581 97.395 62.1581H96.8697V62.9353ZM99.614 64.5411V62.1923H98.7258V61.5517H101.25V62.1923H100.34V64.5411H99.614Z" fill="white"/>
</svg>
