<svg width="78" height="78" viewBox="0 0 78 78" fill="none" xmlns="http://www.w3.org/2000/svg">
<path d="M61.9126 15.9574C58.9326 12.9483 55.3834 10.5623 51.472 8.93861C47.5606 7.3149 43.3651 6.4859 39.1301 6.49993C21.3851 6.49993 6.9226 20.9624 6.9226 38.7074C6.9226 44.3949 8.4176 49.9199 11.2126 54.7949L6.6626 71.4999L23.7251 67.0149C28.4376 69.5824 33.7351 70.9474 39.1301 70.9474C56.8751 70.9474 71.3376 56.4849 71.3376 38.7399C71.3376 30.1274 67.9901 22.0349 61.9126 15.9574ZM39.1301 65.4874C34.3201 65.4874 29.6076 64.1874 25.4801 61.7499L24.5051 61.1649L14.3651 63.8299L17.0626 53.9499L16.4126 52.9424C13.7396 48.6754 12.3206 43.7426 12.3176 38.7074C12.3176 23.9524 24.3426 11.9274 39.0976 11.9274C46.2476 11.9274 52.9751 14.7224 58.0126 19.7924C60.5074 22.275 62.4843 25.2282 63.8289 28.4807C65.1734 31.7333 65.8587 35.2205 65.8451 38.7399C65.9101 53.4949 53.8851 65.4874 39.1301 65.4874ZM53.8201 45.4674C53.0076 45.0774 49.0426 43.1274 48.3276 42.8349C47.5801 42.5749 47.0601 42.4449 46.5076 43.2249C45.9551 44.0374 44.4276 45.8574 43.9726 46.3774C43.5176 46.9299 43.0301 46.9949 42.2176 46.5724C41.4051 46.1824 38.8051 45.3049 35.7501 42.5749C33.3451 40.4299 31.7526 37.7974 31.2651 36.9849C30.8101 36.1724 31.2001 35.7499 31.6226 35.3274C31.9801 34.9699 32.4351 34.3849 32.8251 33.9299C33.2151 33.4749 33.3776 33.1174 33.6376 32.5974C33.8976 32.0449 33.7676 31.5899 33.5726 31.1999C33.3776 30.8099 31.7526 26.8449 31.1026 25.2199C30.4526 23.6599 29.7701 23.8549 29.2826 23.8224H27.7226C27.1701 23.8224 26.3251 24.0174 25.5776 24.8299C24.8626 25.6424 22.7826 27.5924 22.7826 31.5574C22.7826 35.5224 25.6751 39.3574 26.0651 39.8774C26.4551 40.4299 31.7526 48.5549 39.8126 52.0324C41.7301 52.8774 43.2251 53.3649 44.3951 53.7224C46.3126 54.3399 48.0676 54.2424 49.4651 54.0474C51.0251 53.8199 54.2426 52.0974 54.8926 50.2124C55.5751 48.3274 55.5751 46.7349 55.3476 46.3774C55.1201 46.0199 54.6326 45.8574 53.8201 45.4674Z" fill="white"/>
</svg>
